<svg width="112" height="42" viewBox="0 0 112 42" fill="none" xmlns="http://www.w3.org/2000/svg">
<path fill-rule="evenodd" clip-rule="evenodd" d="M29.2047 6.21239C29.2035 8.79971 28.2406 11.1619 26.6537 12.9643C29.6415 15.3884 31.9538 18.4933 31.9538 22.4521C31.9538 28.1102 27.3565 32.6965 21.6851 32.6965C16.0134 32.6965 11.4161 28.1102 11.4161 22.4521C11.4161 18.7692 13.3648 15.5409 16.2892 13.7353C9.73393 13.7677 4.42954 19.0782 4.42954 25.6255C4.42954 32.1928 9.76609 37.5165 16.3491 37.5165C20.0788 37.5165 23.8082 37.5165 27.5379 37.5165H32.9822V42.0002L15.5641 41.9164C6.89938 41.5077 0 34.3706 0 25.6255C0 16.6177 7.31971 9.31555 16.3491 9.31555C18.6701 9.31555 20.8778 9.79845 22.8771 10.6686C23.9614 9.61581 24.6352 8.14428 24.6352 6.51554C24.6352 6.41382 24.6326 6.31296 24.6274 6.21268H29.205L29.2047 6.21239ZM26.9492 0C28.2148 0 29.2406 1.02331 29.2406 2.2859C29.2406 3.54849 28.2146 4.57209 26.9492 4.57209C25.6836 4.57209 24.6578 3.54849 24.6578 2.2859C24.6578 1.02331 25.6839 0 26.9492 0ZM21.6851 16.5466C24.9545 16.5466 27.6045 19.1906 27.6045 22.4518C27.6045 25.7134 24.9542 28.3573 21.6851 28.3573C18.4157 28.3573 15.7654 25.7134 15.7654 22.4518C15.7654 19.1903 18.4157 16.5466 21.6851 16.5466Z" fill="url(#paint0_linear_4303_32805)"/>
<path d="M47.6901 35.2674C46.1305 35.2674 44.7916 34.9923 43.6728 34.4424C42.5543 33.8924 41.6445 33.1772 40.9434 32.2972C40.2424 31.4172 39.7265 30.4584 39.3956 29.4212C39.0648 28.384 38.8994 27.3858 38.8994 26.4273V25.9085C38.8994 24.8398 39.0689 23.7868 39.4075 22.7496C39.7462 21.7124 40.2699 20.7694 40.9791 19.9207C41.6879 19.0719 42.5897 18.3922 43.6847 17.8816C44.7794 17.3706 46.0752 17.1155 47.5719 17.1155C49.1316 17.1155 50.4902 17.3943 51.6481 17.9524C52.8059 18.5101 53.7315 19.2962 54.4247 20.3097C55.1179 21.3234 55.5353 22.506 55.677 23.8576H52.2978C52.1718 23.0718 51.8923 22.4077 51.4589 21.8656C51.0256 21.3234 50.478 20.9148 49.8167 20.6397C49.1551 20.3646 48.4068 20.2273 47.5719 20.2273C46.7211 20.2273 45.9651 20.3727 45.3034 20.6634C44.6418 20.9541 44.0905 21.3668 43.6493 21.9011C43.2082 22.4355 42.8736 23.064 42.645 23.7871C42.4165 24.5101 42.3023 25.3115 42.3023 26.1917C42.3023 27.0405 42.4165 27.8263 42.645 28.5493C42.8736 29.2724 43.216 29.9047 43.6728 30.4468C44.1296 30.989 44.6928 31.4094 45.3622 31.708C46.0317 32.0065 46.8078 32.1559 47.6899 32.1559C48.9818 32.1559 50.0725 31.8377 50.9627 31.2011C51.8529 30.5647 52.3923 29.6726 52.5814 28.5253H55.9606C55.803 29.7512 55.3856 30.8748 54.7083 31.8964C54.0307 32.918 53.1014 33.7352 51.9198 34.3482C50.7382 34.9611 49.3283 35.2674 47.6899 35.2674H47.6901ZM66.0853 34.8195V31.0242H65.5419V26.8044C65.5419 26.0657 65.3608 25.5155 64.9984 25.1543C64.636 24.7927 64.0769 24.6121 63.3206 24.6121C62.9269 24.6121 62.4541 24.6199 61.9029 24.6358C61.3516 24.6514 60.7963 24.6711 60.2369 24.6948C59.6778 24.7182 59.1775 24.7459 58.7363 24.7771V21.9953C59.0987 21.9638 59.5081 21.9323 59.9652 21.9011C60.422 21.8696 60.8907 21.85 61.3713 21.8422C61.8519 21.8344 62.3047 21.8303 62.7299 21.8303C64.0532 21.8303 65.1519 22.0031 66.0265 22.3491C66.9008 22.6947 67.5624 23.2371 68.0114 23.9755C68.4604 24.7141 68.6849 25.6805 68.6849 26.8752V34.8195H66.0856H66.0853ZM61.9501 35.1495C61.0205 35.1495 60.2053 34.9845 59.5043 34.6545C58.8032 34.3245 58.2598 33.8528 57.8739 33.2402C57.4878 32.6272 57.2949 31.8886 57.2949 31.0242C57.2949 30.0812 57.5272 29.3111 57.9919 28.714C58.4565 28.117 59.1103 27.669 59.9533 27.3702C60.796 27.0717 61.7847 26.9223 62.9191 26.9223H65.8964V28.879H62.8718C62.1158 28.879 61.5367 29.0637 61.1349 29.433C60.7331 29.8024 60.5324 30.2778 60.5324 30.8592C60.5324 31.4406 60.7331 31.9123 61.1349 32.2735C61.5367 32.635 62.1158 32.8157 62.8718 32.8157C63.3287 32.8157 63.7502 32.7333 64.136 32.5683C64.5219 32.4033 64.8449 32.1203 65.105 31.7198C65.3649 31.319 65.5106 30.7731 65.5422 30.0815L66.3457 31.0008C66.2669 31.8967 66.0503 32.6509 65.696 33.2639C65.3414 33.8768 64.8533 34.3444 64.231 34.6666C63.6088 34.9888 62.8487 35.1498 61.9507 35.1498L61.9501 35.1495ZM71.9801 34.8195V22.0187H74.5794V27.4407H74.5084C74.5084 25.6019 74.9024 24.2113 75.69 23.268C76.4777 22.3251 77.6356 21.8537 79.1636 21.8537H79.6364V24.706H78.7384C77.6356 24.706 76.781 25.0008 76.1744 25.5901C75.5681 26.1793 75.2648 27.0318 75.2648 28.1479V34.8192H71.9801V34.8195ZM86.8307 35.2437C85.9327 35.2437 85.1056 35.0787 84.3495 34.7487C83.5932 34.4187 82.9397 33.9551 82.3881 33.3578C81.8368 32.7605 81.4113 32.0651 81.112 31.2716C80.8128 30.478 80.663 29.6174 80.663 28.69V28.195C80.663 27.2835 80.8087 26.427 81.1002 25.6253C81.3916 24.8237 81.8012 24.1243 82.329 23.5273C82.8565 22.9299 83.4947 22.4626 84.2429 22.1245C84.9912 21.7867 85.8223 21.6176 86.7359 21.6176C87.744 21.6176 88.6302 21.8338 89.3944 22.2658C90.1583 22.6982 90.7689 23.3464 91.2257 24.2107C91.6826 25.0751 91.9346 26.1594 91.9818 27.4639L91.0128 26.3325V17.6102H94.2975V34.8192H91.6982V29.3738H92.2654C92.2182 30.678 91.9502 31.7666 91.4618 32.6388C90.9734 33.511 90.3315 34.1632 89.5357 34.5955C88.7403 35.0279 87.8385 35.2437 86.8301 35.2437H86.8307ZM87.5633 32.4856C88.2093 32.4856 88.7999 32.3403 89.3356 32.0495C89.8712 31.7588 90.3005 31.3346 90.6235 30.7765C90.9465 30.2188 91.1078 29.5625 91.1078 28.808V27.865C91.1078 27.1104 90.9424 26.4781 90.6116 25.9672C90.2808 25.4563 89.8474 25.0635 89.3118 24.7884C88.7762 24.5133 88.1933 24.376 87.5633 24.376C86.8544 24.376 86.2281 24.5448 85.6847 24.8829C85.1412 25.2207 84.7157 25.6961 84.4086 26.3091C84.1013 26.922 83.9477 27.637 83.9477 28.4542C83.9477 29.2715 84.1053 29.9827 84.4205 30.5878C84.7354 31.193 85.1647 31.6603 85.7081 31.9906C86.2519 32.3206 86.8701 32.4856 87.5633 32.4856ZM97.8059 34.8195V22.0187H100.405V27.4407H100.334C100.334 25.6019 100.728 24.2113 101.516 23.268C102.304 22.3251 103.461 21.8537 104.989 21.8537H105.462V24.706H104.564C103.461 24.706 102.607 25.0008 102 25.5901C101.394 26.1793 101.091 27.0318 101.091 28.1479V34.8192H97.8059V34.8195ZM108.049 34.8195V22.0187H111.333V34.8195H108.049ZM106.252 24.4705V22.0187H111.333V24.4705H106.252ZM109.254 20.4865C108.608 20.4865 108.131 20.3175 107.824 19.9796C107.517 19.6418 107.363 19.2135 107.363 18.6948C107.363 18.1761 107.517 17.7518 107.824 17.4218C108.131 17.0918 108.608 16.9268 109.254 16.9268C109.9 16.9268 110.372 17.0918 110.671 17.4218C110.971 17.7518 111.12 18.1763 111.12 18.6948C111.12 19.2135 110.971 19.6415 110.671 19.9796C110.372 20.3175 109.9 20.4865 109.254 20.4865Z" fill="#07052A"/>
<defs>
<linearGradient id="paint0_linear_4303_32805" x1="-3.71316" y1="22.67" x2="35.2654" y2="22.6694" gradientUnits="userSpaceOnUse">
<stop stop-color="#B5043A"/>
<stop offset="1" stop-color="#E10F58"/>
</linearGradient>
</defs>
</svg>
